# xmcd
#
# Track frame offsets:
# 150
# 13860
# 29836
# 44599
# 60236
# 77663
# 92434
# 108642
# 121080
# 135112
# 150853
# 167955
# 183462
# 200390
# 215841
#
# Disc length: 3139 seconds
#
#
# Revision: 0
# Processed by: cddbd v1.5.1PL2 Copyright (c) Steve Scherf et al.
# Submitted via: FreeRIP 2.945 
#
DISCID=c30c410f
DTITLE=Banda Cavalinho - Cavalinho na copa
DYEAR=2006
DGENRE=Oktoberfest
TTITLE0=Esquentou
TTITLE1=Muita Festa vai Rolar
TTITLE2=A locopéia
TTITLE3=Caipirinha
TTITLE4=Churrasquinho
TTITLE5=O Tuba
TTITLE6=Mambo do alemão
TTITLE7=Cursinho de computador
TTITLE8=O curió
TTITLE9=As coisas do Miguelão
TTITLE10=Futebol chegando em casa
TTITLE11=Bate palmas para o Campeão
TTITLE12=Ano legal
TTITLE13=Guga
TTITLE14=Funk do Alemão
EXTD=
EXTT0=
EXTT1=
EXTT2=
EXTT3=
EXTT4=
EXTT5=
EXTT6=
EXTT7=
EXTT8=
EXTT9=
EXTT10=
EXTT11=
EXTT12=
EXTT13=
EXTT14=
PLAYORDER=
